<?xml version="1.0" standalone="no"?>
<!DOCTYPE svg PUBLIC "-//W3C//DTD SVG 20010904//EN"
 "http://www.w3.org/TR/2001/REC-SVG-20010904/DTD/svg10.dtd">
<svg version="1.0" xmlns="http://www.w3.org/2000/svg"
 width="47.000000pt" height="47.000000pt" viewBox="0 0 47.000000 47.000000"
 preserveAspectRatio="xMidYMid meet">

<g transform="translate(0.000000,47.000000) scale(0.100000,-0.100000)"
fill="#000000" stroke="none">
<path d="M75 370 c-3 -5 -1 -18 5 -29 5 -11 10 -64 10 -118 0 -64 4 -103 12
-111 18 -18 53 -14 73 8 l18 20 19 -20 c10 -11 28 -20 40 -20 48 0 148 150
148 223 0 61 -48 75 -72 21 -11 -23 -9 -28 11 -43 21 -16 22 -21 12 -53 -15
-46 -66 -106 -79 -93 -7 7 -7 43 0 108 6 56 7 102 2 107 -5 5 -21 6 -36 3
l-28 -5 0 -89 c0 -76 -3 -92 -20 -109 -11 -11 -25 -20 -30 -20 -6 0 -10 45
-10 115 l0 115 -34 0 c-19 0 -38 -4 -41 -10z"/>
<path d="M355 121 c-3 -5 -1 -12 5 -16 12 -7 30 2 30 16 0 12 -27 12 -35 0z"/>
</g>
</svg>
